<?xml version="1.0" encoding="utf-8"?>
<!-- Generator: Adobe Illustrator 21.0.0, SVG Export Plug-In . SVG Version: 6.00 Build 0)  -->
<svg version="1.1" id="Слой_1" xmlns="http://www.w3.org/2000/svg" xmlns:xlink="http://www.w3.org/1999/xlink" x="0px" y="0px"
	 viewBox="0 0 50 51" style="enable-background:new 0 0 50 51;" xml:space="preserve">
<style type="text/css">
	.st0{fill:#FFFFFF;}
	.st1{fill:#1D1D1B;}
</style>
<path class="st0" d="M25,0.4c3.5,0,6.7,0.7,9.7,2c3,1.3,5.7,3.1,7.9,5.3c2.3,2.3,4.1,4.9,5.4,7.9c1.3,3,2,6.3,2,9.7s-0.7,6.7-2,9.7
	c-1.3,3-3.1,5.7-5.4,7.9c-2.3,2.3-4.9,4.1-7.9,5.4c-3,1.3-6.3,2-9.7,2c-3.5,0-6.7-0.7-9.7-2c-3-1.3-5.7-3.1-7.9-5.4s-4-4.9-5.3-7.9
	c-1.3-3-2-6.3-2-9.7s0.7-6.7,2-9.7c1.3-3,3.1-5.7,5.3-7.9s4.9-4,7.9-5.3S21.5,0.4,25,0.4z"/>
<path class="st1" d="M25,39.5c2,0,3.8-0.4,5.5-1.1c1.7-0.7,3.2-1.7,4.5-3c1.3-1.3,2.3-2.8,3-4.5c0.7-1.7,1.1-3.5,1.1-5.5
	s-0.4-3.8-1.1-5.5c-0.7-1.7-1.7-3.2-3-4.5c-1.3-1.3-2.8-2.3-4.5-3c-1.7-0.7-3.5-1.1-5.5-1.1c-1.9,0-3.7,0.4-5.4,1.1
	c-1.7,0.7-3.2,1.7-4.5,3s-2.3,2.8-3,4.5c-0.7,1.7-1.1,3.5-1.1,5.5s0.4,3.8,1.1,5.5c0.7,1.7,1.7,3.2,3,4.5c1.3,1.3,2.8,2.3,4.5,3
	C21.2,39.1,23.1,39.5,25,39.5z"/>
<path class="st0" d="M26.2,25.8c-2,0.7-3.9,1.7-5.5,2.9c-1.7,1.3-3.1,2.8-4.3,4.6c-1.9-2.1-2.9-4.5-3.1-7.4c0.3,0,0.6,0.1,0.9,0.1
	h0.8c3.7,0,7.2-0.6,10.5-1.9l0.4,0.8L26.2,25.8z"/>
<path class="st0" d="M27.7,23.2c2.5-1.1,4.8-2.6,7-4.4c1.4,2,2,4.1,2,6.5c-1.5-0.4-3-0.5-4.4-0.5c-1.3,0-2.6,0.1-3.8,0.4
	c-0.1-0.3-0.2-0.6-0.4-1C28,23.9,27.8,23.6,27.7,23.2z"/>
<path class="st0" d="M18.2,34.9c1-1.7,2.3-3.1,3.8-4.3c1.5-1.2,3.2-2.1,5-2.7c0.4,1.4,0.8,2.7,1.1,4.2c0.3,1.4,0.5,2.9,0.7,4.3
	c-1.2,0.4-2.4,0.6-3.7,0.6C22.5,37.1,20.2,36.4,18.2,34.9z"/>
<path class="st0" d="M29.2,27.4c1.1-0.2,2.1-0.3,3-0.3c1.5,0,2.9,0.2,4.2,0.6c-0.3,1.6-1,3.1-1.9,4.5c-1,1.4-2.2,2.4-3.6,3.3
	C30.7,32.8,30.1,30.1,29.2,27.4z"/>
<path class="st0" d="M33.2,17c-1,0.8-2.1,1.6-3.2,2.3c-1.1,0.7-2.2,1.3-3.3,1.8c-0.7-1.2-1.4-2.4-2.2-3.6c-0.8-1.2-1.6-2.3-2.5-3.4
	c1-0.3,2-0.4,3-0.4c1.6,0,3,0.3,4.4,0.9C30.8,15.1,32,15.9,33.2,17z"/>
<path class="st0" d="M24.4,22c-3.1,1.1-6.2,1.6-9.5,1.6h-0.8l-0.7-0.1c0.3-1.8,1-3.5,2-5c1.1-1.5,2.4-2.7,4.1-3.6
	C21.5,17.1,23.1,19.5,24.4,22z"/>
</svg>
