<?xml version="1.0" encoding="utf-8"?>
<!-- Generator: Adobe Illustrator 21.0.0, SVG Export Plug-In . SVG Version: 6.00 Build 0)  -->
<svg version="1.1" id="Слой_1" xmlns="http://www.w3.org/2000/svg" xmlns:xlink="http://www.w3.org/1999/xlink" x="0px" y="0px"
	 viewBox="0 0 50 51" style="enable-background:new 0 0 50 51;" xml:space="preserve">
<style type="text/css">
	.st0{fill:#FFFFFF;}
	.st1{fill:#1D1D1B;}
</style>
<path class="st0" d="M25,0.4c3.5,0,6.7,0.7,9.7,2c3,1.3,5.7,3.1,7.9,5.3c2.3,2.3,4.1,4.9,5.4,7.9c1.3,3,2,6.3,2,9.7s-0.7,6.7-2,9.7
	c-1.3,3-3.1,5.7-5.4,7.9c-2.3,2.3-4.9,4.1-7.9,5.4c-3,1.3-6.3,2-9.7,2c-3.5,0-6.7-0.7-9.7-2c-3-1.3-5.7-3.1-7.9-5.4s-4-4.9-5.3-7.9
	c-1.3-3-2-6.3-2-9.7s0.7-6.7,2-9.7c1.3-3,3.1-5.7,5.3-7.9s4.9-4,7.9-5.3S21.5,0.4,25,0.4z"/>
<rect x="10.9" y="19.2" class="st1" width="6.3" height="20.3"/>
<path class="st1" d="M14,17.6c0.9,0,1.6-0.3,2.2-0.9c0.6-0.6,0.9-1.3,0.9-2.2s-0.3-1.6-0.9-2.2c-0.6-0.6-1.4-0.9-2.2-0.9
	c-0.9,0-1.6,0.3-2.2,0.9c-0.6,0.6-0.9,1.3-0.9,2.2s0.3,1.6,0.9,2.2C12.4,17.3,13.2,17.6,14,17.6z"/>
<path class="st1" d="M39.1,27.7c0-1.4-0.4-2.8-1.2-4.2c-0.8-1.4-1.8-2.4-3.1-3.1c-1.2-0.6-2.5-1-4-1c-1.5,0-2.9,0.2-4.2,0.8v-1h-6.2
	v20.3h6.2V27.1l2.6-1.3c0.3-0.2,0.7-0.2,1.3-0.2c0.5,0,1,0.1,1.3,0.3c0.2,0.1,0.5,0.4,0.7,0.8c0.2,0.4,0.4,0.8,0.4,1.1v11.8h6.3
	V27.7z"/>
</svg>
