<?xml version="1.0" encoding="utf-8"?>
<!-- Generator: Adobe Illustrator 21.0.0, SVG Export Plug-In . SVG Version: 6.00 Build 0)  -->
<svg version="1.1" id="Слой_1" xmlns="http://www.w3.org/2000/svg" xmlns:xlink="http://www.w3.org/1999/xlink" x="0px" y="0px"
	 viewBox="0 0 50 51" style="enable-background:new 0 0 50 51;" xml:space="preserve">
<style type="text/css">
	.st0{fill:#FFFFFF;}
	.st1{fill:#1D1D1B;}
</style>
<path class="st0" d="M25,0.4c3.5,0,6.7,0.7,9.7,2c3,1.3,5.7,3.1,7.9,5.3c2.3,2.3,4.1,4.9,5.4,7.9c1.3,3,2,6.3,2,9.7s-0.7,6.7-2,9.7
	c-1.3,3-3.1,5.7-5.4,7.9c-2.3,2.3-4.9,4.1-7.9,5.4c-3,1.3-6.3,2-9.7,2c-3.5,0-6.7-0.7-9.7-2c-3-1.3-5.7-3.1-7.9-5.4s-4-4.9-5.3-7.9
	c-1.3-3-2-6.3-2-9.7s0.7-6.7,2-9.7c1.3-3,3.1-5.7,5.3-7.9s4.9-4,7.9-5.3S21.5,0.4,25,0.4z"/>
<path class="st1" d="M37.4,20c1.2-0.9,2.2-1.9,3-3.2c-0.6,0.2-1.1,0.4-1.7,0.6c-0.6,0.2-1.2,0.3-1.8,0.4c0.6-0.4,1.2-0.9,1.7-1.5
	c0.5-0.6,0.8-1.2,1-1.9c-0.6,0.3-1.2,0.6-1.9,0.9c-0.6,0.3-1.3,0.4-2,0.6c-0.6-0.6-1.2-1-2-1.4c-0.8-0.4-1.6-0.5-2.5-0.5
	c-0.8,0-1.6,0.2-2.4,0.5c-0.7,0.3-1.4,0.8-1.9,1.3c-0.5,0.6-1,1.2-1.3,1.9c-0.3,0.7-0.5,1.5-0.5,2.4c0,0.2,0,0.5,0,0.7
	c0,0.2,0,0.5,0.1,0.7c-2.5-0.1-4.8-0.7-7-1.9c-2.2-1.1-4-2.6-5.5-4.5c-0.6,0.9-0.8,1.9-0.8,3c0,1,0.2,2,0.7,2.9
	c0.5,0.9,1.1,1.6,1.9,2.2c-1-0.1-2-0.3-2.7-0.8v0.1c0,1.5,0.5,2.8,1.4,3.9c0.9,1.1,2.1,1.8,3.5,2.1c-0.3,0.1-0.5,0.1-0.8,0.2
	c-0.3,0-0.5,0.1-0.8,0.1c-0.2,0-0.4,0-0.6,0c-0.2,0-0.4,0-0.6-0.1c0.4,1.2,1.1,2.2,2.1,3c1,0.8,2.2,1.2,3.6,1.2
	c-1,0.8-2.2,1.5-3.5,1.9c-1.3,0.5-2.6,0.7-4,0.7c-0.3,0-0.5,0-0.8,0c-0.2,0-0.5,0-0.7-0.1c1.4,0.9,2.8,1.6,4.4,2
	c1.6,0.5,3.2,0.7,4.9,0.7c2.8,0,5.3-0.5,7.4-1.6c2.2-1.1,4-2.4,5.4-4.1c1.5-1.7,2.6-3.5,3.3-5.6c0.8-2.1,1.1-4.1,1.1-6.1V20z"/>
</svg>
