<?xml version="1.0" encoding="utf-8"?>
<!-- Generator: Adobe Illustrator 21.0.0, SVG Export Plug-In . SVG Version: 6.00 Build 0)  -->
<svg version="1.1" id="Слой_1" xmlns="http://www.w3.org/2000/svg" xmlns:xlink="http://www.w3.org/1999/xlink" x="0px" y="0px"
	 viewBox="0 0 50 51" style="enable-background:new 0 0 50 51;" xml:space="preserve">
<style type="text/css">
	.st0{fill:#FFFFFF;}
</style>
<path class="st0" d="M25,0.4c3.5,0,6.7,0.7,9.7,2c3,1.3,5.7,3.1,8,5.4c2.3,2.3,4.1,4.9,5.4,7.9c1.3,3,2,6.3,2,9.7s-0.7,6.7-2,9.7
	c-1.3,3-3.1,5.7-5.4,8s-4.9,4.1-8,5.4c-3,1.3-6.3,2-9.7,2s-6.7-0.7-9.7-2c-3-1.3-5.7-3.1-7.9-5.4c-2.3-2.3-4.1-4.9-5.4-8
	c-1.3-3-2-6.3-2-9.7s0.7-6.7,2-9.7c1.3-3,3.1-5.7,5.4-7.9c2.3-2.3,4.9-4.1,7.9-5.4C18.3,1.1,21.5,0.4,25,0.4z"/>
<path d="M34.4,11.3h-5.3c-1,0-2,0.2-2.9,0.5c-0.9,0.4-1.6,0.8-2.3,1.4c-0.7,0.6-1.2,1.3-1.5,2c-0.4,0.8-0.5,1.5-0.5,2.3v3.2h-4.7
	v6.2h4.7v12.5h6.3V26.9h4.6v-6.2h-4.6v-1.6c0-0.5,0.2-0.9,0.6-1.1c0.4-0.3,0.7-0.4,1-0.4h4.7V11.3z"/>
</svg>
